# xmcd CD database file
#
# Track frame offsets:
#	150
#	13301
#	23645
#	41479
#	52986
#	65465
#	77117
#	89035
#	104571
#	117761
#
# Disc length: 1725 seconds
#
# Revision: 0
# Processed by: cddbd v1.5.1PL2 Copyright (c) Steve Scherf et al.
# Submitted via: CDex 1.51
#
DISCID=7f06bb0a
DTITLE=Various Artist - Country Ladies - Vol 1
DYEAR=1900
DGENRE=Country
TTITLE0=Lynn Anderson - Rose Garden
TTITLE1=Connie Smith - Once A Day
TTITLE2=Deborah Allen - Baby I Lied
TTITLE3=Sammi Smith - Help Me Make It Through The Night
TTITLE4=Wanda Jackson - Crazy
TTITLE5=Billie Jo Spears - Try A Little Kindness
TTITLE6=Skeeter Davis - The End Of The World
TTITLE7=Judy Rodman - I'll Be Your Baby Tonight
TTITLE8=Lacy J. Dalton - Dream Baby (How Long Must I Dream)
TTITLE9=Donna Fargo - The Happiest Girl In The Whole U. S. A.
EXTD=
EXTT0=
EXTT1=
EXTT2=
EXTT3=
EXTT4=
EXTT5=
EXTT6=
EXTT7=
EXTT8=
EXTT9=
PLAYORDER=
